<svg width="916" height="573" viewBox="0 0 916 573" fill="none" xmlns="http://www.w3.org/2000/svg">
<g clip-path="url(#clip0_1_18)">
<rect width="916" height="572.5" fill="#1A1818"/>
<g filter="url(#filter0_f_1_18)">
<ellipse cx="478.498" cy="445.399" rx="376.896" ry="208.008" transform="rotate(-6.48121 478.498 445.399)" fill="#67D6F9"/>
</g>
<g filter="url(#filter1_f_1_18)">
<path d="M501.576 499.131C561.363 463.961 581.278 425.483 626.841 373.163C714.793 272.168 723.671 183.73 817.245 87.9256C1008.18 -107.558 822.137 695.51 551.952 735.468C382.104 760.587 -12.0435 606.727 151.475 554.304C216.779 533.368 259.137 557.859 326.909 547.432C396.852 536.671 440.563 535.022 501.576 499.131Z" fill="url(#paint0_linear_1_18)"/>
</g>
<g filter="url(#filter2_f_1_18)">
<path d="M107.045 296.902C16.8403 302.837 -42.0331 336.134 -99.2974 413.604C-215.304 570.543 462.478 620.398 368.085 447.982C308.569 339.271 222.265 289.322 107.045 296.902Z" fill="#67D6F9"/>
</g>
<g filter="url(#filter3_f_1_18)">
<path d="M151.293 509.115C76.2896 514.049 27.3377 541.735 -20.2762 606.15C-116.733 736.641 446.827 778.094 368.341 634.734C318.855 544.343 247.096 502.812 151.293 509.115Z" fill="#67D6F9"/>
</g>
</g>
<defs>
<filter id="filter0_f_1_18" x="-87.5704" y="43.5113" width="1132.14" height="803.775" filterUnits="userSpaceOnUse" color-interpolation-filters="sRGB">
<feFlood flood-opacity="0" result="BackgroundImageFix"/>
<feBlend mode="normal" in="SourceGraphic" in2="BackgroundImageFix" result="shape"/>
<feGaussianBlur stdDeviation="95.4167" result="effect1_foregroundBlur_1_18"/>
</filter>
<filter id="filter1_f_1_18" x="-46.4605" y="-101.717" width="1100.9" height="998.962" filterUnits="userSpaceOnUse" color-interpolation-filters="sRGB">
<feFlood flood-opacity="0" result="BackgroundImageFix"/>
<feBlend mode="normal" in="SourceGraphic" in2="BackgroundImageFix" result="shape"/>
<feGaussianBlur stdDeviation="79.5139" result="effect1_foregroundBlur_1_18"/>
</filter>
<filter id="filter2_f_1_18" x="-303.534" y="105.32" width="871.503" height="641.805" filterUnits="userSpaceOnUse" color-interpolation-filters="sRGB">
<feFlood flood-opacity="0" result="BackgroundImageFix"/>
<feBlend mode="normal" in="SourceGraphic" in2="BackgroundImageFix" result="shape"/>
<feGaussianBlur stdDeviation="95.4167" result="effect1_foregroundBlur_1_18"/>
</filter>
<filter id="filter3_f_1_18" x="-158.643" y="381.27" width="661.732" height="470.743" filterUnits="userSpaceOnUse" color-interpolation-filters="sRGB">
<feFlood flood-opacity="0" result="BackgroundImageFix"/>
<feBlend mode="normal" in="SourceGraphic" in2="BackgroundImageFix" result="shape"/>
<feGaussianBlur stdDeviation="63.6111" result="effect1_foregroundBlur_1_18"/>
</filter>
<linearGradient id="paint0_linear_1_18" x1="684.487" y1="286.161" x2="376.956" y2="611.481" gradientUnits="userSpaceOnUse">
<stop stop-color="#FB5E4D"/>
<stop offset="1" stop-color="#FB5E4D"/>
</linearGradient>
<clipPath id="clip0_1_18">
<rect width="916" height="572.5" fill="white"/>
</clipPath>
</defs>
</svg>
