<svg width="1328" height="1185" viewBox="0 0 1328 1185" fill="none" xmlns="http://www.w3.org/2000/svg">
<path d="M925.074 781.172C815.786 890.58 695.923 970.395 590.735 1011.15C484.882 1052.17 396.753 1052.69 347.621 1008.58C298.49 964.478 294.238 881.028 331.676 778.594C368.879 676.806 446.421 558.999 555.709 449.59C664.997 340.182 784.86 260.367 890.048 219.609C995.901 178.592 1084.03 178.073 1133.16 222.178C1182.29 266.284 1186.54 349.734 1149.11 452.168C1111.9 553.956 1034.36 671.763 925.074 781.172Z" stroke="#EB4C5C" stroke-width="14"/>
<line x1="1098.09" y1="200.811" x2="832.092" y2="21.8106" stroke="#EB4C5C" stroke-width="14"/>
<line x1="931.421" y1="203.289" x2="672.077" y2="27.8006" stroke="#EB4C5C" stroke-width="14"/>
<line x1="374.318" y1="1025.95" x2="70.3182" y2="837.954" stroke="#EB4C5C" stroke-width="14"/>
<path d="M72.7426 840.614C-84.5263 599.144 492.891 -77.15 834.134 22.3843" stroke="#EB4C5C" stroke-width="14"/>
<path d="M125.911 649.258C129.688 644.917 133.783 641.512 138.196 639.041C142.609 636.57 147.047 635.022 151.512 634.398C156.015 633.73 160.416 633.958 164.716 635.083C168.972 636.172 172.85 638.086 176.35 640.823L217.274 672.828C220.774 675.566 223.515 678.829 225.497 682.617C227.434 686.371 228.484 690.407 228.649 694.724C228.85 698.998 228.091 703.424 226.371 708C224.651 712.577 221.902 717.035 218.125 721.376L200.848 741.229C197.071 745.569 192.976 748.975 188.563 751.446C184.151 753.917 179.693 755.486 175.191 756.153C170.726 756.778 166.365 756.546 162.11 755.456C157.81 754.332 153.909 752.401 150.409 749.664L109.485 717.658C105.985 714.921 103.267 711.675 101.33 707.922C99.348 704.133 98.2562 700.102 98.0544 695.827C97.89 691.51 98.6679 687.063 100.388 682.486C102.109 677.91 104.857 673.451 108.634 669.111L125.911 649.258ZM192.794 691.599L199.189 684.251L144.612 650.126L136.961 650.858L128.155 658.379L122.153 665.276L116.038 674.902L116.79 682.097L162.335 726.6L169.01 718.93L155.571 706.686L149.94 701.198L170.638 677.413L177.392 681.611L192.794 691.599ZM141.348 658.947C145.244 661.489 148.976 663.829 152.543 665.969C156.111 668.109 159.839 670.411 163.728 672.875L143.983 695.565L125.136 677.575C126.049 676.267 126.789 675.113 127.358 674.113C127.964 673.07 128.7 671.877 129.568 670.533L135.065 664.216L141.348 658.947ZM219.588 574.109L213.149 570.589L205.251 571.346L198.721 577.289L184.698 593.404L176.284 606.322L230.266 648.54L236.212 641.708L188.422 604.333L191.922 598.621L205.385 583.15L209.996 579.282L214.528 581.743L258.481 616.117L264.483 609.22L219.588 574.109ZM192.327 572.938C196.104 568.598 200.199 565.192 204.612 562.721C209.024 560.25 213.463 558.703 217.928 558.078C222.431 557.41 226.832 557.639 231.132 558.763C235.388 559.853 239.266 561.766 242.766 564.503L283.69 596.509C287.19 599.246 289.931 602.509 291.912 606.298C293.849 610.051 294.9 614.087 295.064 618.404C295.266 622.679 294.507 627.104 292.787 631.681C291.066 636.257 288.318 640.716 284.541 645.056L267.264 664.909C263.487 669.25 259.392 672.655 254.979 675.126C250.566 677.597 246.109 679.166 241.606 679.834C237.141 680.458 232.781 680.226 228.526 679.137C224.225 678.012 220.325 676.081 216.825 673.344L175.901 641.339C172.401 638.601 169.682 635.356 167.746 631.602C165.764 627.813 164.672 623.782 164.47 619.508C164.306 615.19 165.084 610.743 166.804 606.167C168.524 601.59 171.273 597.132 175.05 592.791L192.327 572.938ZM258.743 496.618C262.52 492.278 266.615 488.873 271.027 486.402C275.44 483.931 279.879 482.383 284.344 481.758C288.846 481.091 293.248 481.319 297.548 482.444C301.804 483.533 305.681 485.446 309.181 488.184L350.105 520.189C353.605 522.926 356.346 526.189 358.328 529.978C360.265 533.732 361.316 537.767 361.48 542.085C361.682 546.359 360.923 550.784 359.202 555.361C357.482 559.938 354.733 564.396 350.956 568.736L333.679 588.59C329.902 592.93 325.807 596.335 321.395 598.806C316.982 601.277 312.525 602.847 308.022 603.514C303.557 604.139 299.197 603.906 294.942 602.817C290.641 601.693 286.741 599.762 283.241 597.024L242.317 565.019C238.817 562.282 236.098 559.036 234.161 555.282C232.18 551.494 231.088 547.462 230.886 543.188C230.722 538.871 231.5 534.424 233.22 529.847C234.94 525.27 237.689 520.812 241.466 516.472L258.743 496.618ZM287.26 496.605L280.821 493.086L272.979 493.778L266.259 499.68L251.226 516.955L246.447 524.267L247.164 531.761L252.145 536.957L286.069 563.488L292.531 567.241L300.473 566.303L306.891 560.489L321.924 543.214L326.894 535.943L326.187 528.566L321.184 523.136L287.26 496.605ZM317.482 533.24L314.453 538.021L300.092 554.522L295.773 558.186L290.893 555.994L258.652 530.779L255.511 527.24L258.697 522.148L273.057 505.647L277.724 501.714L282.257 504.175L314.498 529.39L317.482 533.24ZM352.42 421.469L345.98 417.95L338.082 418.706L331.553 424.65L317.529 440.764L309.115 453.683L363.097 495.901L369.043 489.068L321.254 451.693L324.754 445.981L338.217 430.511L342.828 426.642L347.36 429.104L391.313 463.478L397.315 456.581L352.42 421.469ZM325.159 420.299C328.936 415.958 333.031 412.553 337.443 410.082C341.856 407.611 346.295 406.063 350.76 405.439C355.262 404.771 359.663 405 363.964 406.124C368.219 407.213 372.097 409.127 375.597 411.864L416.521 443.869C420.021 446.607 422.762 449.87 424.744 453.659C426.681 457.412 427.732 461.448 427.896 465.765C428.098 470.039 427.339 474.465 425.618 479.041C423.898 483.618 421.149 488.076 417.372 492.417L400.095 512.27C396.318 516.61 392.223 520.016 387.811 522.487C383.398 524.958 378.94 526.527 374.438 527.194C369.973 527.819 365.613 527.587 361.357 526.497C357.057 525.373 353.157 523.442 349.657 520.705L308.733 488.699C305.233 485.962 302.514 482.716 300.577 478.963C298.595 475.174 297.504 471.143 297.302 466.868C297.137 462.551 297.915 458.104 299.636 453.527C301.356 448.951 304.105 444.492 307.882 440.152L325.159 420.299ZM435.663 356.36L432.074 316.288L422.381 316.508L426.733 364.542L401.222 344.591L395.276 351.424L450.941 394.958L456.887 388.125L435.819 371.649C435.827 370.427 435.808 369.365 435.763 368.463C435.711 367.484 435.67 366.404 435.64 365.225L479.762 364.309L479.605 354.87L435.663 356.36ZM408.178 324.899C411.955 320.559 416.05 317.153 420.463 314.682C424.876 312.211 429.314 310.664 433.779 310.039C438.282 309.371 442.683 309.6 446.984 310.724C451.239 311.814 455.117 313.727 458.617 316.464L499.541 348.47C503.041 351.207 505.782 354.47 507.764 358.259C509.701 362.013 510.751 366.048 510.916 370.365C511.118 374.64 510.358 379.065 508.638 383.642C506.918 388.218 504.169 392.677 500.392 397.017L483.115 416.87C479.338 421.211 475.243 424.616 470.83 427.087C466.418 429.558 461.96 431.127 457.458 431.795C452.993 432.419 448.633 432.187 444.377 431.098C440.077 429.973 436.176 428.043 432.676 425.305L391.752 393.3C388.252 390.562 385.534 387.317 383.597 383.563C381.615 379.774 380.523 375.743 380.321 371.469C380.157 367.151 380.935 362.704 382.655 358.128C384.376 353.551 387.124 349.093 390.901 344.753L408.178 324.899ZM535.689 283.794L518.468 303.583L469.938 265.629L463.992 272.462L519.657 315.995L542.824 289.374L535.689 283.794ZM474.594 248.579C478.371 244.239 482.466 240.834 486.879 238.363C491.291 235.892 495.73 234.344 500.195 233.719C504.698 233.052 509.099 233.28 513.399 234.405C517.655 235.494 521.533 237.407 525.033 240.145L565.957 272.15C569.457 274.888 572.198 278.151 574.18 281.939C576.116 285.693 577.167 289.728 577.332 294.046C577.533 298.32 576.774 302.745 575.054 307.322C573.333 311.899 570.585 316.357 566.808 320.697L549.531 340.551C545.754 344.891 541.659 348.297 537.246 350.768C532.833 353.238 528.376 354.808 523.874 355.475C519.409 356.1 515.048 355.867 510.793 354.778C506.492 353.654 502.592 351.723 499.092 348.986L458.168 316.98C454.668 314.243 451.95 310.997 450.013 307.244C448.031 303.455 446.939 299.423 446.737 295.149C446.573 290.832 447.351 286.385 449.071 281.808C450.791 277.232 453.54 272.773 457.317 268.433L474.594 248.579ZM541.01 172.26C544.787 167.92 548.882 164.514 553.295 162.043C557.707 159.572 562.146 158.024 566.611 157.4C571.113 156.732 575.515 156.961 579.815 158.085C584.071 159.174 587.948 161.088 591.449 163.825L632.373 195.831C635.873 198.568 638.614 201.831 640.595 205.62C642.532 209.373 643.583 213.409 643.747 217.726C643.949 222 643.19 226.426 641.47 231.002C639.749 235.579 637.001 240.037 633.224 244.378L615.946 264.231C612.169 268.571 608.075 271.977 603.662 274.448C599.249 276.919 594.792 278.488 590.289 279.156C585.824 279.78 581.464 279.548 577.209 278.458C572.908 277.334 569.008 275.403 565.508 272.666L524.584 240.66C521.084 237.923 518.365 234.678 516.428 230.924C514.447 227.135 513.355 223.104 513.153 218.829C512.989 214.512 513.767 210.065 515.487 205.488C517.207 200.912 519.956 196.453 523.733 192.113L541.01 172.26ZM558.287 164.106L552.341 170.938L596.428 205.418C596.937 205.96 597.434 206.602 597.92 207.343C598.444 208.041 598.922 208.705 599.356 209.333L596.383 214.049L582.023 230.551L577.648 234.278L572.824 232.022L529.005 197.753L523.172 204.457L568 239.516L574.461 243.269L582.348 242.396L588.821 236.517L603.854 219.242L608.768 212.036L608.118 204.594L603.115 199.164L558.287 164.106ZM607.426 95.9401C611.203 91.5999 615.298 88.1943 619.71 85.7233C624.123 83.2524 628.562 81.7046 633.027 81.0801C637.529 80.4125 641.931 80.6409 646.231 81.7654C650.486 82.8547 654.364 84.768 657.864 87.5053L698.788 119.511C702.288 122.248 705.029 125.511 707.011 129.3C708.948 133.054 709.999 137.089 710.163 141.406C710.365 145.681 709.606 150.106 707.885 154.683C706.165 159.259 703.416 163.718 699.639 168.058L682.362 187.911C678.585 192.252 674.49 195.657 670.078 198.128C665.665 200.599 661.208 202.168 656.705 202.836C652.24 203.461 647.88 203.228 643.624 202.139C639.324 201.014 635.424 199.084 631.924 196.346L591 164.341C587.5 161.603 584.781 158.358 582.844 154.604C580.862 150.815 579.771 146.784 579.569 142.51C579.404 138.192 580.182 133.745 581.903 129.169C583.623 124.592 586.372 120.134 590.149 115.794L607.426 95.9401ZM656.843 117.147L650.796 114.476L643.952 117.79L646.421 111.054L642.371 105.829L633.419 98.8277L626.98 95.3083L619.138 96.0002L612.418 101.903L588.858 128.975L644.523 172.509L668.083 145.436L673.053 138.165L672.346 130.788L667.477 125.464L656.843 117.147ZM663.64 135.463L660.611 140.243L643.39 160.032L625.621 146.135L642.954 126.217L647.307 122.255L651.839 124.716L660.791 131.718L663.64 135.463ZM638.669 115.933L635.774 120.819L618.553 140.608L601.995 127.658L619.216 107.869L623.883 103.936L627.63 107.3L635.887 112.24L638.669 115.933Z" fill="#EB4C5C"/>
<line y1="-2" x2="295.039" y2="-2" transform="matrix(0.825389 0.564564 -0.605638 0.795741 712 24)" stroke="#EB4C5C" stroke-width="4" stroke-dasharray="14 14"/>
<line y1="-2" x2="295.039" y2="-2" transform="matrix(0.825389 0.564564 -0.605638 0.795741 734 12)" stroke="#EB4C5C" stroke-width="4" stroke-dasharray="14 14"/>
<line y1="-2" x2="295.039" y2="-2" transform="matrix(0.825389 0.564564 -0.605638 0.795741 773 12)" stroke="#EB4C5C" stroke-width="4" stroke-dasharray="14 14"/>
<path d="M367 698.226C407.872 1113.83 1243.54 288.161 789.017 267.003" stroke="#EB4C5C" stroke-width="14"/>
</svg>
