<svg width="1289" height="1193" viewBox="0 0 1289 1193" fill="none" xmlns="http://www.w3.org/2000/svg">
<path d="M886.074 790.169C776.786 899.577 656.923 979.392 551.735 1020.15C445.882 1061.17 357.753 1061.69 308.621 1017.58C259.49 973.475 255.238 890.025 292.676 787.591C329.879 685.803 407.421 567.996 516.709 458.587C625.997 349.179 745.86 269.364 851.048 228.605C956.901 187.589 1045.03 187.07 1094.16 231.175C1143.29 275.281 1147.54 358.731 1110.11 461.165C1072.9 562.953 995.362 680.76 886.074 790.169Z" stroke="#EB4C5C" stroke-width="14"/>
<path d="M318 732.938C318 1222.41 1386.11 242 815.833 242" stroke="#EB4C5C" stroke-width="14"/>
<line x1="1059.09" y1="209.808" x2="793.092" y2="30.8075" stroke="#EB4C5C" stroke-width="14"/>
<line x1="948.421" y1="202.286" x2="689.077" y2="26.7975" stroke="#EB4C5C" stroke-width="14"/>
<line x1="335.318" y1="1034.95" x2="31.3182" y2="846.953" stroke="#EB4C5C" stroke-width="14"/>
<path d="M33.7426 849.611C-123.526 608.141 453.891 -68.1529 795.134 31.3814" stroke="#EB4C5C" stroke-width="14"/>
<path d="M131.911 649.258C135.688 644.917 139.783 641.512 144.196 639.041C148.609 636.57 153.047 635.022 157.512 634.398C162.015 633.73 166.416 633.958 170.716 635.083C174.972 636.172 178.85 638.086 182.35 640.823L223.274 672.828C226.774 675.566 229.515 678.829 231.497 682.617C233.434 686.371 234.484 690.407 234.649 694.724C234.85 698.998 234.091 703.424 232.371 708C230.651 712.577 227.902 717.035 224.125 721.376L206.848 741.229C203.071 745.569 198.976 748.975 194.563 751.446C190.151 753.917 185.693 755.486 181.191 756.153C176.726 756.778 172.365 756.546 168.11 755.456C163.81 754.332 159.909 752.401 156.409 749.664L115.485 717.658C111.985 714.921 109.267 711.675 107.33 707.922C105.348 704.133 104.256 700.102 104.054 695.827C103.89 691.51 104.668 687.063 106.388 682.486C108.109 677.91 110.857 673.451 114.634 669.111L131.911 649.258ZM198.794 691.599L205.189 684.251L150.612 650.126L142.961 650.858L134.155 658.379L128.153 665.276L122.038 674.902L122.79 682.097L168.335 726.6L175.01 718.93L161.571 706.686L155.94 701.198L176.638 677.413L183.392 681.611L198.794 691.599ZM147.348 658.947C151.244 661.489 154.976 663.829 158.543 665.969C162.111 668.109 165.839 670.411 169.728 672.875L149.983 695.565L131.136 677.575C132.049 676.267 132.789 675.113 133.358 674.113C133.964 673.07 134.7 671.877 135.568 670.533L141.065 664.216L147.348 658.947ZM225.588 574.109L219.149 570.589L211.251 571.346L204.721 577.289L190.698 593.404L182.284 606.322L236.266 648.54L242.212 641.708L194.422 604.333L197.922 598.621L211.385 583.15L215.996 579.282L220.528 581.743L264.481 616.117L270.483 609.22L225.588 574.109ZM198.327 572.938C202.104 568.598 206.199 565.192 210.612 562.721C215.024 560.25 219.463 558.703 223.928 558.078C228.431 557.41 232.832 557.639 237.132 558.763C241.388 559.853 245.266 561.766 248.766 564.503L289.69 596.509C293.19 599.246 295.931 602.509 297.912 606.298C299.849 610.051 300.9 614.087 301.064 618.404C301.266 622.679 300.507 627.104 298.787 631.681C297.066 636.257 294.318 640.716 290.541 645.056L273.264 664.909C269.487 669.25 265.392 672.655 260.979 675.126C256.566 677.597 252.109 679.166 247.606 679.834C243.141 680.458 238.781 680.226 234.526 679.137C230.225 678.012 226.325 676.081 222.825 673.344L181.901 641.339C178.401 638.601 175.682 635.356 173.746 631.602C171.764 627.813 170.672 623.782 170.47 619.508C170.306 615.19 171.084 610.743 172.804 606.167C174.524 601.59 177.273 597.132 181.05 592.791L198.327 572.938ZM264.743 496.618C268.52 492.278 272.615 488.873 277.027 486.402C281.44 483.931 285.879 482.383 290.344 481.758C294.846 481.091 299.248 481.319 303.548 482.444C307.804 483.533 311.681 485.446 315.181 488.184L356.105 520.189C359.605 522.926 362.346 526.189 364.328 529.978C366.265 533.732 367.316 537.767 367.48 542.085C367.682 546.359 366.923 550.784 365.202 555.361C363.482 559.938 360.733 564.396 356.956 568.736L339.679 588.59C335.902 592.93 331.807 596.335 327.395 598.806C322.982 601.277 318.525 602.847 314.022 603.514C309.557 604.139 305.197 603.906 300.942 602.817C296.641 601.693 292.741 599.762 289.241 597.024L248.317 565.019C244.817 562.282 242.098 559.036 240.161 555.282C238.18 551.494 237.088 547.462 236.886 543.188C236.722 538.871 237.5 534.424 239.22 529.847C240.94 525.27 243.689 520.812 247.466 516.472L264.743 496.618ZM293.26 496.605L286.821 493.086L278.979 493.778L272.259 499.68L257.226 516.955L252.447 524.267L253.164 531.761L258.145 536.957L292.069 563.488L298.531 567.241L306.473 566.303L312.891 560.489L327.924 543.214L332.894 535.943L332.187 528.566L327.184 523.136L293.26 496.605ZM323.482 533.24L320.453 538.021L306.092 554.522L301.773 558.186L296.893 555.994L264.652 530.779L261.511 527.24L264.697 522.148L279.057 505.647L283.724 501.714L288.257 504.175L320.498 529.39L323.482 533.24ZM358.42 421.469L351.98 417.95L344.082 418.706L337.553 424.65L323.529 440.764L315.115 453.683L369.097 495.901L375.043 489.068L327.254 451.693L330.754 445.981L344.217 430.511L348.828 426.642L353.36 429.104L397.313 463.478L403.315 456.581L358.42 421.469ZM331.159 420.299C334.936 415.958 339.031 412.553 343.443 410.082C347.856 407.611 352.295 406.063 356.76 405.439C361.262 404.771 365.663 405 369.964 406.124C374.219 407.213 378.097 409.127 381.597 411.864L422.521 443.869C426.021 446.607 428.762 449.87 430.744 453.659C432.681 457.412 433.732 461.448 433.896 465.765C434.098 470.039 433.339 474.465 431.618 479.041C429.898 483.618 427.149 488.076 423.372 492.417L406.095 512.27C402.318 516.61 398.223 520.016 393.811 522.487C389.398 524.958 384.94 526.527 380.438 527.194C375.973 527.819 371.613 527.587 367.357 526.497C363.057 525.373 359.157 523.442 355.657 520.705L314.733 488.699C311.233 485.962 308.514 482.716 306.577 478.963C304.595 475.174 303.504 471.143 303.302 466.868C303.137 462.551 303.915 458.104 305.636 453.527C307.356 448.951 310.105 444.492 313.882 440.152L331.159 420.299ZM441.663 356.36L438.074 316.288L428.381 316.508L432.733 364.542L407.222 344.591L401.276 351.424L456.941 394.958L462.887 388.125L441.819 371.649C441.827 370.427 441.808 369.365 441.763 368.463C441.711 367.484 441.67 366.404 441.64 365.225L485.762 364.309L485.605 354.87L441.663 356.36ZM414.178 324.899C417.955 320.559 422.05 317.153 426.463 314.682C430.876 312.211 435.314 310.664 439.779 310.039C444.282 309.371 448.683 309.6 452.984 310.724C457.239 311.814 461.117 313.727 464.617 316.464L505.541 348.47C509.041 351.207 511.782 354.47 513.764 358.259C515.701 362.013 516.751 366.048 516.916 370.365C517.118 374.64 516.358 379.065 514.638 383.642C512.918 388.218 510.169 392.677 506.392 397.017L489.115 416.87C485.338 421.211 481.243 424.616 476.83 427.087C472.418 429.558 467.96 431.127 463.458 431.795C458.993 432.419 454.633 432.187 450.377 431.098C446.077 429.973 442.176 428.043 438.676 425.305L397.752 393.3C394.252 390.562 391.534 387.317 389.597 383.563C387.615 379.774 386.523 375.743 386.321 371.469C386.157 367.151 386.935 362.704 388.655 358.128C390.376 353.551 393.124 349.093 396.901 344.753L414.178 324.899ZM541.689 283.794L524.468 303.583L475.938 265.629L469.992 272.462L525.657 315.995L548.824 289.374L541.689 283.794ZM480.594 248.579C484.371 244.239 488.466 240.834 492.879 238.363C497.291 235.892 501.73 234.344 506.195 233.719C510.698 233.052 515.099 233.28 519.399 234.405C523.655 235.494 527.533 237.407 531.033 240.145L571.957 272.15C575.457 274.888 578.198 278.151 580.18 281.939C582.116 285.693 583.167 289.728 583.332 294.046C583.533 298.32 582.774 302.745 581.054 307.322C579.333 311.899 576.585 316.357 572.808 320.697L555.531 340.551C551.754 344.891 547.659 348.297 543.246 350.768C538.833 353.238 534.376 354.808 529.874 355.475C525.409 356.1 521.048 355.867 516.793 354.778C512.492 353.654 508.592 351.723 505.092 348.986L464.168 316.98C460.668 314.243 457.95 310.997 456.013 307.244C454.031 303.455 452.939 299.423 452.737 295.149C452.573 290.832 453.351 286.385 455.071 281.808C456.791 277.232 459.54 272.773 463.317 268.433L480.594 248.579ZM547.01 172.26C550.787 167.92 554.882 164.514 559.295 162.043C563.707 159.572 568.146 158.024 572.611 157.4C577.113 156.732 581.515 156.961 585.815 158.085C590.071 159.174 593.948 161.088 597.449 163.825L638.373 195.831C641.873 198.568 644.614 201.831 646.595 205.62C648.532 209.373 649.583 213.409 649.747 217.726C649.949 222 649.19 226.426 647.47 231.002C645.749 235.579 643.001 240.037 639.224 244.378L621.946 264.231C618.169 268.571 614.075 271.977 609.662 274.448C605.249 276.919 600.792 278.488 596.289 279.156C591.824 279.78 587.464 279.548 583.209 278.458C578.908 277.334 575.008 275.403 571.508 272.666L530.584 240.66C527.084 237.923 524.365 234.678 522.428 230.924C520.447 227.135 519.355 223.104 519.153 218.829C518.989 214.512 519.767 210.065 521.487 205.488C523.207 200.912 525.956 196.453 529.733 192.113L547.01 172.26ZM564.287 164.106L558.341 170.938L602.428 205.418C602.937 205.96 603.434 206.602 603.92 207.343C604.444 208.041 604.922 208.705 605.356 209.333L602.383 214.049L588.023 230.551L583.648 234.278L578.824 232.022L535.005 197.753L529.172 204.457L574 239.516L580.461 243.269L588.348 242.396L594.821 236.517L609.854 219.242L614.768 212.036L614.118 204.594L609.115 199.164L564.287 164.106ZM613.426 95.9401C617.203 91.5999 621.298 88.1943 625.71 85.7233C630.123 83.2524 634.562 81.7046 639.027 81.0801C643.529 80.4125 647.931 80.6409 652.231 81.7654C656.486 82.8547 660.364 84.768 663.864 87.5053L704.788 119.511C708.288 122.248 711.029 125.511 713.011 129.3C714.948 133.054 715.999 137.089 716.163 141.406C716.365 145.681 715.606 150.106 713.885 154.683C712.165 159.259 709.416 163.718 705.639 168.058L688.362 187.911C684.585 192.252 680.49 195.657 676.078 198.128C671.665 200.599 667.208 202.168 662.705 202.836C658.24 203.461 653.88 203.228 649.624 202.139C645.324 201.014 641.424 199.084 637.924 196.346L597 164.341C593.5 161.603 590.781 158.358 588.844 154.604C586.862 150.815 585.771 146.784 585.569 142.51C585.404 138.192 586.182 133.745 587.903 129.169C589.623 124.592 592.372 120.134 596.149 115.794L613.426 95.9401ZM662.843 117.147L656.796 114.476L649.952 117.79L652.421 111.054L648.371 105.829L639.419 98.8277L632.98 95.3083L625.138 96.0002L618.418 101.903L594.858 128.975L650.523 172.509L674.083 145.436L679.053 138.165L678.346 130.788L673.477 125.464L662.843 117.147ZM669.64 135.463L666.611 140.243L649.39 160.032L631.621 146.135L648.954 126.217L653.307 122.255L657.839 124.716L666.791 131.718L669.64 135.463ZM644.669 115.933L641.774 120.819L624.553 140.608L607.995 127.658L625.216 107.869L629.883 103.936L633.63 107.3L641.887 112.24L644.669 115.933Z" fill="#EB4C5C"/>
<line y1="-0.5" x2="295.039" y2="-0.5" transform="matrix(0.825389 0.564564 -0.605638 0.795741 718.07 29.9199)" stroke="#EB4C5C" stroke-dasharray="5 5"/>
<line x1="743.013" y1="32.4296" x2="981.283" y2="195.587" stroke="#EB4C5C" stroke-dasharray="5 5"/>
<line x1="758.426" y1="29.5077" x2="1000.28" y2="195.588" stroke="#EB4C5C" stroke-dasharray="5 5"/>
<line x1="778.284" y1="32.5888" x2="1005.28" y2="189.589" stroke="#EB4C5C" stroke-dasharray="5 5"/>
<line y1="-0.5" x2="295.039" y2="-0.5" transform="matrix(0.825389 0.564564 -0.605638 0.795741 718.07 29.9199)" stroke="#EB4C5C" stroke-dasharray="5 5"/>
</svg>
