<?xml version="1.0" standalone="no"?>
<!DOCTYPE svg PUBLIC "-//W3C//DTD SVG 20010904//EN"
 "http://www.w3.org/TR/2001/REC-SVG-20010904/DTD/svg10.dtd">
<svg version="1.0" xmlns="http://www.w3.org/2000/svg"
 width="72.000000pt" height="72.000000pt" viewBox="0 0 72.000000 72.000000"
 preserveAspectRatio="xMidYMid meet">

<g transform="translate(0.000000,72.000000) scale(0.100000,-0.100000)"
fill="#EB4C5C" stroke="none">
<path d="M275 663 c-75 -39 -124 -114 -125 -188 0 -32 -5 -42 -22 -50 -47 -21
-46 -155 1 -170 12 -3 21 -19 25 -39 14 -76 128 -176 201 -176 43 0 133 57
172 108 37 49 41 62 16 62 -10 0 -28 -16 -41 -36 -23 -35 -104 -94 -129 -94
-20 0 -15 44 7 63 11 9 20 21 20 27 0 6 -9 18 -20 27 -21 18 -27 53 -10 53 6
0 10 9 10 20 0 11 22 45 50 75 55 61 65 87 57 148 -7 50 -61 107 -102 107 -18
0 -25 5 -25 20 0 46 90 15 137 -47 27 -35 28 -40 31 -180 l3 -143 29 0 c45 0
60 23 60 90 0 51 -3 61 -25 78 -14 11 -25 30 -25 42 0 82 -54 169 -124 201
-50 23 -130 24 -171 2z m143 -118 c55 -46 48 -116 -18 -180 l-40 -39 0 122 c0
135 4 142 58 97z m172 -205 c0 -21 -4 -42 -10 -45 -6 -4 -10 13 -10 45 0 32 4
49 10 45 6 -3 10 -24 10 -45z"/>
</g>
</svg>
