<svg width="861" height="98" viewBox="0 0 861 98" fill="none" xmlns="http://www.w3.org/2000/svg">
<path d="M65.3467 61.1957H13.3335V94.9855H0V11.714C13.192 3.41198 25.928 0.157227 39.2615 0.157227C52.595 0.157227 65.4882 3.41198 78.523 11.714V94.9855H65.331V61.1957H65.3467ZM13.3335 49.3402H65.3467V19.277C56.9032 14.5285 48.7585 12.453 39.2615 12.453C29.7645 12.453 21.6355 14.5285 13.3335 19.277V49.356V49.3402Z" fill="white"/>
<path d="M106.888 22.5318V94.9855H94.2936V2.37427H107.486L159.342 74.828V2.37427H171.936V94.9855H158.901L106.888 22.5318Z" fill="white"/>
<path d="M422.615 22.5318V94.9855H410.021V2.37427H423.213L475.069 74.828V2.37427H487.663V94.9855H474.629L422.615 22.5318Z" fill="white"/>
<path d="M556.155 48.161L533.78 73.2085V94.9855H520.447V2.37427H533.78V56.463L581.8 2.37427H597.067L565.95 38.5225L601.816 94.9855H586.108L556.17 48.161H556.155Z" fill="white"/>
<path d="M677.068 94.9855H613.797V2.37427H627.131V83.13H677.068V94.9855Z" fill="white"/>
<path d="M729.679 97.2025C715.607 97.2025 703.154 93.7905 691.157 85.6458V2.37427H704.49V78.0985C711.754 82.847 719.758 84.9067 729.679 84.9067C739.601 84.9067 747.462 82.8312 754.727 78.0985V2.37427H768.06V85.6458C756.204 93.649 743.61 97.2025 729.679 97.2025Z" fill="white"/>
<path d="M815.906 97.2025C803.155 97.2025 792.054 96.322 782.117 94.9855V2.37424C791.598 1.03774 802.856 0.157227 815.309 0.157227C831.315 0.157227 845.985 3.27047 858.721 11.714V39.8747C853.092 44.1672 846.426 46.8402 839.602 48.4754C847.306 49.9534 854.712 52.768 860.64 57.5164V85.6772C847.746 94.2622 832.196 97.2339 815.891 97.2339L815.906 97.2025ZM795.45 43.4125H816.488C827.164 43.4125 837.825 41.0382 845.388 36.0067V18.6637C836.646 13.3335 826.866 11.3995 815.906 11.3995C808.202 11.3995 800.497 11.8398 795.45 12.4373V43.4125ZM795.45 53.79V84.9067C800.639 85.5042 808.784 85.9445 816.645 85.9445C828.202 85.9445 838.422 84.3092 847.322 78.979V61.353C839.46 56.0227 828.501 53.79 817.243 53.79H795.466H795.45Z" fill="white"/>
<path d="M393.983 30.4721C393.779 10.4718 342.08 0 290.994 0C239.909 0 188.194 10.4718 187.99 30.4721V64.7492C187.99 64.7492 187.99 64.7807 187.99 64.7964C187.99 64.8121 187.99 64.8436 187.99 64.8593C188.194 84.8596 239.893 95.3314 290.994 95.3314C342.096 95.3314 393.794 84.8596 393.983 64.8593C393.983 64.8593 393.983 64.8121 393.983 64.7964C393.983 64.7807 393.983 64.765 393.983 64.7492V30.4721ZM290.979 9.43408C352.285 9.43408 384.408 23.1449 384.549 30.535C384.486 33.4281 379.926 38.1451 367.615 42.6735C367.206 42.532 366.813 42.3905 366.388 42.2647C347.269 36.1482 319.784 32.6419 290.979 32.6419C262.173 32.6419 234.704 36.1482 215.569 42.2647C215.144 42.4062 214.751 42.5477 214.343 42.6735C202.047 38.1451 197.471 33.4281 197.408 30.535C197.55 23.1449 229.673 9.43408 290.979 9.43408ZM349.832 47.6736C333.133 51.2585 312.488 53.2711 290.979 53.2711C269.469 53.2711 248.808 51.2742 232.126 47.6736C248.824 44.0886 269.469 42.076 290.979 42.076C312.488 42.076 333.149 44.0729 349.832 47.6736ZM290.979 85.913C229.673 85.913 197.55 72.2022 197.408 64.8121C197.471 61.919 202.031 57.202 214.327 52.6736C214.736 52.8151 215.144 52.9566 215.569 53.0824C234.689 59.1989 262.173 62.7052 290.979 62.7052C319.784 62.7052 347.253 59.1989 366.388 53.0824C366.813 52.9409 367.206 52.8151 367.631 52.6736C379.926 57.202 384.486 61.919 384.549 64.8121C384.408 72.2022 352.285 85.913 290.979 85.913Z" fill="white"/>
</svg>
